<svg width="1623" height="211" viewBox="0 0 1623 211" fill="none" xmlns="http://www.w3.org/2000/svg">
<path d="M867.564 78.9725C864.545 72.0898 860.07 66.875 854.137 63.2859C848.225 59.5701 841.005 57.7122 832.475 57.7122C823.946 57.7122 817.126 59.5067 811.194 63.0748C805.43 66.6639 800.954 71.3509 797.787 77.1146L795.718 60.1823H770.32V164.246H799.223V108.72C799.223 103.062 800.194 98.3117 802.115 94.4692C804.184 90.4789 807.014 87.4387 810.582 85.3697C814.15 83.174 818.161 82.0761 822.552 82.0761C829.857 82.0761 835.157 84.2718 838.45 88.6843C841.892 92.9491 843.623 99.0717 843.623 107.052V164.246H872.315V104.371C872.315 94.3214 870.731 85.8553 867.564 78.9725Z" fill="black"/>
<path d="M267.755 25.811H220.674V164.246H267.565C335.801 164.246 338.567 110.789 338.567 95.0181C338.567 80.366 336.35 25.811 267.755 25.811ZM310.276 95.0181C310.276 108.256 310.276 140.516 266.172 140.516H248.374V49.3305H266.172C310.888 49.3305 310.276 83.6807 310.276 95.0181Z" fill="black"/>
<path d="M405.135 58.9788H403.72C373.656 58.9577 349.271 83.3427 349.271 113.407V114.822C350.01 143.788 373.36 167.118 402.306 167.856H403.72C433.32 167.856 457.41 144.253 458.17 114.822V113.407C458.17 83.8072 434.566 59.7177 405.135 58.9788ZM403.72 142.057C387.907 142.057 375.092 129.242 375.092 113.407C375.092 97.5726 387.907 84.7784 403.72 84.7784C419.534 84.7784 432.349 97.5937 432.37 113.407C432.37 129.242 419.534 142.057 403.72 142.057Z" fill="black"/>
<path d="M622.046 63.2859C616.008 59.5701 608.429 57.7122 599.35 57.7122C592.045 57.7122 585.31 59.2956 579.103 62.4625C572.917 65.6294 567.829 69.9575 563.839 75.4679C559.173 66.7906 551.72 62.0614 544.837 59.7812C540.699 58.4089 536.097 57.7122 531.009 57.7122C523.852 57.7122 517.518 59.2323 512.007 62.2514C506.645 65.1438 502.296 69.0707 499.002 74.0322L496.722 60.1823H471.344V164.246H500.248V108.91C500.248 103.273 501.134 98.4595 502.929 94.4692C504.724 90.4789 507.257 87.4387 510.572 85.3697C513.865 83.174 517.581 82.0761 521.719 82.0761C528.602 82.0761 533.627 84.2718 536.794 88.6843C539.96 92.9491 541.544 99.0717 541.544 107.052V164.246H570.236V108.91C570.236 103.273 571.123 98.4595 572.917 94.4692C574.838 90.4789 577.456 87.4387 580.771 85.3697C584.065 83.174 587.928 82.0761 592.32 82.0761C598.928 82.0761 603.826 84.2718 606.993 88.6843C610.16 92.9491 611.743 99.0717 611.743 107.052V164.246H640.435V104.582C640.435 94.5325 638.852 86.0664 635.685 79.1837C632.666 72.1743 628.106 66.875 622.046 63.2859Z" fill="black"/>
<path d="M704.068 127.468L674.152 60.1824H643.834L685.574 153.226H691.802L666.467 210.546H696.172L760.756 60.1824H730.86L704.068 127.468Z" fill="black"/>
<path d="M91.7964 0.261841C138.476 0.261841 188.005 41.6499 188.005 88.3301C188.005 115.002 176.964 124.553 176.964 124.553C177.238 156.094 149.56 178.38 116.54 175.871C116.54 175.871 115.4 190.061 92.3876 190.061C57.2989 190.04 0 151.098 0 88.3301C0 34.7765 45.117 0.261841 91.7964 0.261841ZM46.5738 156.158C77.7989 183.757 103.324 177.073 103.324 172.287C103.324 166.278 93.4432 161.028 87.5739 158.878C73.9565 153.838 55.8421 158.14 46.5738 156.179V156.158ZM50.3318 67.6466C21.3868 81.288 14.9264 116.267 33.3575 135.221C45.0115 146.902 58.6923 141.736 74.3576 142.495C90.023 143.254 106.512 148.082 114.26 162.146C134.042 163.706 153.381 155.441 160.517 139.333C111.431 169.082 41.2957 123.119 50.3107 67.6466H50.3318ZM65.7227 62.3967C48.2417 109.878 121.333 162.335 162.987 120.062C162.164 113.968 159.968 107.685 156.463 101.529C129.714 126.45 77.0811 94.8451 104.78 64.0834C99.0591 62.5232 83.3937 58.707 65.7016 62.3967H65.7227ZM171.707 73.1074C170.968 79.4326 168.983 85.4416 165.816 90.7548C168.54 94.9084 170.778 99.1885 172.509 103.511C175.275 93.9807 175.021 83.3754 171.707 73.0863V73.1074ZM118.82 69.0804C114.112 74.014 107.082 79.3483 113.099 87.7398C121.987 100.137 139.7 98.7246 148.483 90.544C140.503 81.5621 130.305 74.246 118.841 69.1014L118.82 69.0804ZM13.6175 87.2338C13.9975 86.3061 22.738 60.9841 56.0532 50.8637C79.0023 9.11717 135.541 28.7043 126.231 57.5263C136.533 61.5533 149.518 71.8845 156.379 79.0742C164.697 40.1108 129.376 15.6532 91.7542 14.9364C55.4832 14.2406 17.0799 35.5777 13.5963 87.2338H13.6175ZM76.3633 47.3848C81.7258 47.1107 95.9344 46.7945 113.521 52.5083C114.471 41.2915 90.213 34.5868 76.3633 47.3848Z" fill="url(#paint0_linear_7686_6243)"/>
<path d="M956.092 11.1545L956.092 199.653" stroke="black" stroke-width="10.7629" stroke-linejoin="round"/>
<path d="M1093.56 176.251C1083.52 176.251 1074.79 174.426 1067.36 170.775C1060.06 167.125 1054.45 162.041 1050.54 155.523C1046.63 148.874 1044.68 141.313 1044.68 132.839H1058.95C1058.95 138.575 1060.25 143.855 1062.86 148.679C1065.47 153.502 1069.31 157.413 1074.4 160.411C1079.48 163.279 1085.87 164.713 1093.56 164.713C1100.34 164.713 1106.01 163.605 1110.57 161.389C1115.27 159.043 1118.85 155.979 1121.33 152.198C1123.81 148.418 1125.05 144.116 1125.05 139.292C1125.05 133.556 1123.81 128.929 1121.33 125.409C1118.98 121.889 1115.72 119.021 1111.55 116.805C1107.38 114.589 1102.62 112.698 1097.28 111.134C1092.06 109.439 1086.52 107.614 1080.66 105.659C1070.1 102.008 1062.34 97.5109 1057.39 92.166C1052.43 86.821 1049.89 79.9769 1049.76 71.6337C1049.76 64.4636 1051.39 58.141 1054.65 52.6657C1058.04 47.0601 1062.93 42.6929 1069.31 39.5642C1075.7 36.3051 1083.26 34.6755 1092 34.6755C1100.47 34.6755 1107.84 36.3051 1114.09 39.5642C1120.48 42.6929 1125.44 47.1253 1128.96 52.8613C1132.48 58.4669 1134.24 64.9199 1134.24 72.2203H1120.16C1120.16 68.0486 1119.05 64.0074 1116.83 60.0965C1114.75 56.0552 1111.55 52.7961 1107.25 50.3192C1103.08 47.7119 1097.73 46.4083 1091.22 46.4083C1085.87 46.4083 1081.11 47.386 1076.94 49.3414C1072.9 51.1665 1069.71 53.9042 1067.36 57.5544C1065.01 61.0742 1063.84 65.2458 1063.84 70.0693C1063.84 74.7624 1064.88 78.6081 1066.97 81.6065C1069.05 84.6049 1071.99 87.0818 1075.77 89.0372C1079.55 90.9927 1083.98 92.8178 1089.06 94.5125C1094.15 96.0769 1099.82 97.902 1106.08 99.9878C1112.46 102.204 1118.14 104.876 1123.09 108.005C1128.04 111.134 1131.95 115.175 1134.82 120.129C1137.69 124.952 1139.12 131.08 1139.12 138.51C1139.12 144.898 1137.43 150.96 1134.04 156.696C1130.78 162.432 1125.76 167.125 1118.98 170.775C1112.2 174.426 1103.73 176.251 1093.56 176.251ZM1178.66 173.904L1149.72 75.349H1163.6L1187.07 159.629H1184.33L1209.75 75.349H1225.39L1250.81 159.629H1248.08L1271.54 75.349H1285.43L1256.49 173.904H1242.6L1216.2 85.7129H1218.94L1192.54 173.904H1178.66ZM1329.12 176.251C1321.16 176.251 1314.51 174.817 1309.17 171.949C1303.96 169.081 1300.04 165.365 1297.44 160.802C1294.96 156.24 1293.72 151.221 1293.72 145.745C1293.72 138.967 1295.42 133.231 1298.81 128.537C1302.33 123.844 1307.21 120.325 1313.47 117.978C1319.86 115.631 1327.16 114.458 1335.37 114.458H1361.97C1361.97 108.07 1360.99 102.66 1359.03 98.2279C1357.08 93.7955 1354.21 90.4712 1350.43 88.255C1346.78 85.9085 1342.09 84.7352 1336.35 84.7352C1329.57 84.7352 1323.77 86.4299 1318.95 89.8194C1314.12 93.2089 1311.13 98.1627 1309.95 104.681H1295.68C1296.46 97.7716 1298.81 91.9704 1302.72 87.2773C1306.76 82.5842 1311.71 79.0644 1317.58 76.7178C1323.57 74.2409 1329.83 73.0025 1336.35 73.0025C1345.35 73.0025 1352.71 74.7624 1358.45 78.2822C1364.31 81.6717 1368.62 86.3648 1371.35 92.3615C1374.22 98.3582 1375.66 105.268 1375.66 113.089V173.904H1363.14L1362.55 155.914C1361.25 158.651 1359.56 161.259 1357.47 163.736C1355.51 166.213 1353.17 168.364 1350.43 170.189C1347.82 172.014 1344.76 173.448 1341.24 174.491C1337.72 175.664 1333.68 176.251 1329.12 176.251ZM1330.68 164.127C1335.63 164.127 1340 163.149 1343.78 161.194C1347.56 159.238 1350.82 156.631 1353.56 153.372C1356.3 150.113 1358.38 146.397 1359.82 142.226C1361.25 138.054 1361.97 133.817 1361.97 129.515V125.995H1336.35C1329.44 125.995 1323.9 126.843 1319.73 128.537C1315.56 130.232 1312.56 132.514 1310.73 135.382C1308.91 138.25 1308 141.574 1308 145.354C1308 149.135 1308.84 152.459 1310.54 155.327C1312.36 158.065 1314.97 160.216 1318.36 161.78C1321.75 163.345 1325.86 164.127 1330.68 164.127ZM1397.61 173.904V75.349H1410.12L1411.1 94.317C1413.18 89.7542 1415.99 85.9085 1419.51 82.7798C1423.03 79.651 1427.26 77.2393 1432.22 75.5446C1437.17 73.8498 1442.78 73.0025 1449.03 73.0025V87.2773H1443.75C1439.58 87.2773 1435.54 87.8639 1431.63 89.0372C1427.72 90.0801 1424.26 91.9052 1421.27 94.5125C1418.27 97.1198 1415.86 100.64 1414.03 105.072C1412.21 109.504 1411.29 115.045 1411.29 121.693V173.904H1397.61ZM1464.35 173.904V75.349H1476.87L1477.84 90.2105C1480.84 84.7352 1485.01 80.4984 1490.36 77.5C1495.7 74.5017 1501.63 73.0025 1508.15 73.0025C1513.11 73.0025 1517.67 73.7195 1521.84 75.1535C1526.01 76.5875 1529.66 78.7385 1532.79 81.6065C1535.92 84.4745 1538.46 88.1899 1540.42 92.7526C1543.55 86.6255 1548.04 81.802 1553.91 78.2822C1559.91 74.7624 1566.29 73.0025 1573.07 73.0025C1580.63 73.0025 1587.22 74.5017 1592.82 77.5C1598.43 80.4984 1602.73 85.0611 1605.73 91.1882C1608.86 97.3153 1610.42 105.072 1610.42 114.458V173.904H1596.73V116.023C1596.73 105.593 1594.58 97.8368 1590.28 92.7526C1586.11 87.538 1580.11 84.9308 1572.29 84.9308C1567.08 84.9308 1562.32 86.3648 1558.02 89.2328C1553.71 91.9704 1550.33 96.0117 1547.85 101.357C1545.5 106.571 1544.33 113.089 1544.33 120.911V173.904H1530.64V116.023C1530.64 105.593 1528.49 97.8368 1524.19 92.7526C1519.89 87.538 1513.95 84.9308 1506.39 84.9308C1500.92 84.9308 1496.03 86.3648 1491.73 89.2328C1487.56 91.9704 1484.23 96.0769 1481.75 101.552C1479.28 106.897 1478.04 113.546 1478.04 121.498V173.904H1464.35Z" fill="black"/>
<defs>
<linearGradient id="paint0_linear_7686_6243" x1="24.2094" y1="26.265" x2="119.029" y2="188.952" gradientUnits="userSpaceOnUse">
<stop stop-color="#33ADFF"/>
<stop offset="0.5" stop-color="#0000FF"/>
<stop offset="0.9" stop-color="#220E70"/>
</linearGradient>
</defs>
</svg>
