<svg width="1623" height="211" viewBox="0 0 1623 211" fill="none" xmlns="http://www.w3.org/2000/svg">
<path d="M867.564 78.9708C864.545 72.0881 860.07 66.8733 854.137 63.2842C848.225 59.5684 841.005 57.7104 832.475 57.7104C823.946 57.7104 817.126 59.505 811.194 63.0731C805.43 66.6622 800.954 71.3492 797.787 77.1129L795.718 60.1806H770.32V164.245H799.223V108.718C799.223 103.06 800.194 98.31 802.115 94.4675C804.184 90.4772 807.014 87.437 810.582 85.368C814.15 83.1722 818.161 82.0744 822.552 82.0744C829.857 82.0744 835.157 84.2701 838.45 88.6826C841.892 92.9474 843.623 99.07 843.623 107.051V164.245H872.315V104.369C872.315 94.3197 870.731 85.8535 867.564 78.9708Z" fill="white"/>
<path d="M267.755 25.8091H220.674V164.244H267.565C335.801 164.244 338.567 110.787 338.567 95.0162C338.567 80.364 336.35 25.8091 267.755 25.8091ZM310.276 95.0162C310.276 108.254 310.276 140.514 266.172 140.514H248.374V49.3285H266.172C310.888 49.3285 310.276 83.6787 310.276 95.0162Z" fill="white"/>
<path d="M405.135 58.9776H403.72C373.656 58.9564 349.271 83.3415 349.271 113.406V114.82C350.01 143.787 373.36 167.116 402.306 167.855H403.72C433.32 167.855 457.41 144.251 458.17 114.82V113.406C458.17 83.806 434.566 59.7165 405.135 58.9776ZM403.72 142.056C387.907 142.056 375.092 129.24 375.092 113.406C375.092 97.5714 387.907 84.7772 403.72 84.7772C419.534 84.7772 432.349 97.5925 432.37 113.406C432.37 129.24 419.534 142.056 403.72 142.056Z" fill="white"/>
<path d="M622.046 63.2842C616.008 59.5684 608.429 57.7104 599.35 57.7104C592.045 57.7104 585.31 59.2939 579.103 62.4608C572.917 65.6277 567.829 69.9558 563.839 75.4661C559.173 66.7889 551.72 62.0596 544.837 59.7795C540.699 58.4072 536.097 57.7104 531.009 57.7104C523.852 57.7104 517.518 59.2306 512.007 62.2497C506.645 65.1421 502.296 69.069 499.002 74.0305L496.722 60.1806H471.344V164.245H500.248V108.909C500.248 103.271 501.134 98.4578 502.929 94.4675C504.724 90.4772 507.257 87.437 510.572 85.368C513.865 83.1722 517.581 82.0744 521.719 82.0744C528.602 82.0744 533.627 84.2701 536.794 88.6826C539.96 92.9474 541.544 99.07 541.544 107.051V164.245H570.236V108.909C570.236 103.271 571.123 98.4578 572.917 94.4675C574.838 90.4772 577.456 87.437 580.771 85.368C584.065 83.1722 587.928 82.0744 592.32 82.0744C598.928 82.0744 603.826 84.2701 606.993 88.6826C610.16 92.9474 611.743 99.07 611.743 107.051V164.245H640.435V104.58C640.435 94.5308 638.852 86.0647 635.685 79.182C632.666 72.1726 628.106 66.8733 622.046 63.2842Z" fill="white"/>
<path d="M704.068 127.466L674.152 60.1802H643.834L685.574 153.223H691.802L666.467 210.544H696.172L760.756 60.1802H730.86L704.068 127.466Z" fill="white"/>
<path d="M91.7964 0.259766C138.476 0.259766 188.005 41.6479 188.005 88.3281C188.005 114.999 176.964 124.551 176.964 124.551C177.238 156.092 149.56 178.378 116.54 175.869C116.54 175.869 115.4 190.059 92.3876 190.059C57.2989 190.038 0 151.095 0 88.3281C0 34.7744 45.117 0.259766 91.7964 0.259766ZM46.5738 156.156C77.7989 183.755 103.324 177.071 103.324 172.285C103.324 166.276 93.4432 161.026 87.5739 158.875C73.9565 153.836 55.8421 158.138 46.5738 156.177V156.156ZM50.3318 67.6446C21.3868 81.286 14.9264 116.265 33.3575 135.219C45.0115 146.9 58.6923 141.734 74.3576 142.493C90.023 143.252 106.512 148.08 114.26 162.144C134.042 163.704 153.381 155.439 160.517 139.331C111.431 169.08 41.2957 123.117 50.3107 67.6446H50.3318ZM65.7227 62.3946C48.2417 109.876 121.333 162.333 162.987 120.06C162.164 113.966 159.968 107.683 156.463 101.527C129.714 126.448 77.0811 94.8431 104.78 64.0813C99.0591 62.5211 83.3937 58.7049 65.7016 62.3946H65.7227ZM171.707 73.1053C170.968 79.4306 168.983 85.4395 165.816 90.7527C168.54 94.9063 170.778 99.1864 172.509 103.509C175.275 93.9786 175.021 83.3733 171.707 73.0843V73.1053ZM118.82 69.0783C114.112 74.012 107.082 79.3462 113.099 87.7377C121.987 100.135 139.7 98.7225 148.483 90.5419C140.503 81.5601 130.305 74.2439 118.841 69.0994L118.82 69.0783ZM13.6175 87.2317C13.9975 86.304 22.738 60.982 56.0532 50.8616C79.0023 9.11509 135.541 28.7022 126.231 57.5242C136.533 61.5513 149.518 71.8825 156.379 79.0721C164.697 40.1087 129.376 15.6512 91.7542 14.9343C55.4832 14.2385 17.0799 35.5756 13.5963 87.2317H13.6175ZM76.3633 47.3827C81.7258 47.1086 95.9344 46.7924 113.521 52.5062C114.471 41.2894 90.213 34.5847 76.3633 47.3827Z" fill="url(#paint0_linear_7686_6245)"/>
<path d="M956.092 11.1523L956.092 199.651" stroke="white" stroke-width="10.7629" stroke-linejoin="round"/>
<path d="M1093.56 176.248C1083.52 176.248 1074.79 174.423 1067.36 170.773C1060.06 167.123 1054.45 162.039 1050.54 155.521C1046.63 148.872 1044.68 141.311 1044.68 132.837H1058.95C1058.95 138.573 1060.25 143.853 1062.86 148.676C1065.47 153.5 1069.31 157.411 1074.4 160.409C1079.48 163.277 1085.87 164.711 1093.56 164.711C1100.34 164.711 1106.01 163.603 1110.57 161.387C1115.27 159.04 1118.85 155.977 1121.33 152.196C1123.81 148.416 1125.05 144.114 1125.05 139.29C1125.05 133.554 1123.81 128.926 1121.33 125.407C1118.98 121.887 1115.72 119.019 1111.55 116.803C1107.38 114.586 1102.62 112.696 1097.28 111.132C1092.06 109.437 1086.52 107.612 1080.66 105.656C1070.1 102.006 1062.34 97.5087 1057.39 92.1638C1052.43 86.8188 1049.89 79.9747 1049.76 71.6315C1049.76 64.4615 1051.39 58.1388 1054.65 52.6635C1058.04 47.0579 1062.93 42.6907 1069.31 39.562C1075.7 36.3029 1083.26 34.6733 1092 34.6733C1100.47 34.6733 1107.84 36.3029 1114.09 39.562C1120.48 42.6907 1125.44 47.1231 1128.96 52.8591C1132.48 58.4647 1134.24 64.9177 1134.24 72.2181H1120.16C1120.16 68.0464 1119.05 64.0052 1116.83 60.0943C1114.75 56.053 1111.55 52.7939 1107.25 50.317C1103.08 47.7097 1097.73 46.4061 1091.22 46.4061C1085.87 46.4061 1081.11 47.3838 1076.94 49.3392C1072.9 51.1643 1069.71 53.902 1067.36 57.5522C1065.01 61.072 1063.84 65.2436 1063.84 70.0671C1063.84 74.7602 1064.88 78.6059 1066.97 81.6043C1069.05 84.6027 1071.99 87.0796 1075.77 89.035C1079.55 90.9905 1083.98 92.8156 1089.06 94.5103C1094.15 96.0747 1099.82 97.8998 1106.08 99.9856C1112.46 102.202 1118.14 104.874 1123.09 108.003C1128.04 111.132 1131.95 115.173 1134.82 120.127C1137.69 124.95 1139.12 131.077 1139.12 138.508C1139.12 144.896 1137.43 150.958 1134.04 156.694C1130.78 162.43 1125.76 167.123 1118.98 170.773C1112.2 174.423 1103.73 176.248 1093.56 176.248ZM1178.66 173.902L1149.72 75.3468H1163.6L1187.07 159.627H1184.33L1209.75 75.3468H1225.39L1250.81 159.627H1248.08L1271.54 75.3468H1285.43L1256.49 173.902H1242.6L1216.2 85.7107H1218.94L1192.54 173.902H1178.66ZM1329.12 176.248C1321.16 176.248 1314.51 174.814 1309.17 171.946C1303.96 169.078 1300.04 165.363 1297.44 160.8C1294.96 156.238 1293.72 151.219 1293.72 145.743C1293.72 138.964 1295.42 133.228 1298.81 128.535C1302.33 123.842 1307.21 120.322 1313.47 117.976C1319.86 115.629 1327.16 114.456 1335.37 114.456H1361.97C1361.97 108.068 1360.99 102.658 1359.03 98.2257C1357.08 93.7933 1354.21 90.469 1350.43 88.2528C1346.78 85.9063 1342.09 84.733 1336.35 84.733C1329.57 84.733 1323.77 86.4277 1318.95 89.8172C1314.12 93.2067 1311.13 98.1605 1309.95 104.679H1295.68C1296.46 97.7694 1298.81 91.9682 1302.72 87.2751C1306.76 82.582 1311.71 79.0622 1317.58 76.7156C1323.57 74.2387 1329.83 73.0003 1336.35 73.0003C1345.35 73.0003 1352.71 74.7602 1358.45 78.28C1364.31 81.6695 1368.62 86.3626 1371.35 92.3593C1374.22 98.356 1375.66 105.265 1375.66 113.087V173.902H1363.14L1362.55 155.912C1361.25 158.649 1359.56 161.257 1357.47 163.733C1355.51 166.21 1353.17 168.361 1350.43 170.186C1347.82 172.012 1344.76 173.446 1341.24 174.488C1337.72 175.662 1333.68 176.248 1329.12 176.248ZM1330.68 164.125C1335.63 164.125 1340 163.147 1343.78 161.191C1347.56 159.236 1350.82 156.629 1353.56 153.37C1356.3 150.11 1358.38 146.395 1359.82 142.223C1361.25 138.052 1361.97 133.815 1361.97 129.513V125.993H1336.35C1329.44 125.993 1323.9 126.841 1319.73 128.535C1315.56 130.23 1312.56 132.511 1310.73 135.379C1308.91 138.247 1308 141.572 1308 145.352C1308 149.133 1308.84 152.457 1310.54 155.325C1312.36 158.063 1314.97 160.214 1318.36 161.778C1321.75 163.342 1325.86 164.125 1330.68 164.125ZM1397.61 173.902V75.3468H1410.12L1411.1 94.3148C1413.18 89.752 1415.99 85.9063 1419.51 82.7776C1423.03 79.6488 1427.26 77.2371 1432.22 75.5424C1437.17 73.8476 1442.78 73.0003 1449.03 73.0003V87.2751H1443.75C1439.58 87.2751 1435.54 87.8618 1431.63 89.035C1427.72 90.0779 1424.26 91.903 1421.27 94.5103C1418.27 97.1176 1415.86 100.637 1414.03 105.07C1412.21 109.502 1411.29 115.043 1411.29 121.691V173.902H1397.61ZM1464.35 173.902V75.3468H1476.87L1477.84 90.2083C1480.84 84.733 1485.01 80.4962 1490.36 77.4978C1495.7 74.4995 1501.63 73.0003 1508.15 73.0003C1513.11 73.0003 1517.67 73.7173 1521.84 75.1513C1526.01 76.5853 1529.66 78.7363 1532.79 81.6043C1535.92 84.4723 1538.46 88.1877 1540.42 92.7504C1543.55 86.6233 1548.04 81.7998 1553.91 78.28C1559.91 74.7602 1566.29 73.0003 1573.07 73.0003C1580.63 73.0003 1587.22 74.4995 1592.82 77.4978C1598.43 80.4962 1602.73 85.0589 1605.73 91.186C1608.86 97.3131 1610.42 105.07 1610.42 114.456V173.902H1596.73V116.02C1596.73 105.591 1594.58 97.8346 1590.28 92.7504C1586.11 87.5358 1580.11 84.9286 1572.29 84.9286C1567.08 84.9286 1562.32 86.3626 1558.02 89.2306C1553.71 91.9682 1550.33 96.0095 1547.85 101.354C1545.5 106.569 1544.33 113.087 1544.33 120.909V173.902H1530.64V116.02C1530.64 105.591 1528.49 97.8346 1524.19 92.7504C1519.89 87.5358 1513.95 84.9286 1506.39 84.9286C1500.92 84.9286 1496.03 86.3626 1491.73 89.2306C1487.56 91.9682 1484.23 96.0747 1481.75 101.55C1479.28 106.895 1478.04 113.543 1478.04 121.496V173.902H1464.35Z" fill="white"/>
<defs>
<linearGradient id="paint0_linear_7686_6245" x1="24.2094" y1="26.2629" x2="119.029" y2="188.95" gradientUnits="userSpaceOnUse">
<stop stop-color="white"/>
<stop offset="0.5" stop-color="white"/>
<stop offset="0.9" stop-color="white"/>
</linearGradient>
</defs>
</svg>
